<?xml version="1.0" encoding="UTF-8"?>
<svg width="48px" height="48px" viewBox="0 0 48 48" version="1.1" xmlns="http://www.w3.org/2000/svg" xmlns:xlink="http://www.w3.org/1999/xlink">
    <title>icons/logo/FX</title>
    <g id="icons/logo/FX" stroke="none" stroke-width="1" fill="none" fill-rule="evenodd">
        <rect id="Rectangle" fill="#2170F2" x="0" y="0" width="48" height="48"></rect>
        <path d="M34.2672,26.1552 L33.0144,28.2432 L36.024,33.1488 L34.104,33.1488 L31.68,29.1648 C31.5183175,28.8854539 31.4400303,28.5656422 31.4544,28.2432 C31.4549932,28.0815121 31.4743222,27.9204377 31.512,27.7632 C31.5485065,27.6214831 31.6050784,27.4857106 31.68,27.36 L34.152,23.2464 L36.024,23.2464 L34.2672,26.1744" id="Path" fill="#FFFFFF" fill-rule="nonzero"></path>
        <path d="M27.5184,23.208 L29.9904,27.3216 C30.0619825,27.4478421 30.1153127,27.5835919 30.1488,27.7248 C30.1864778,27.8820377 30.2058068,28.0431121 30.2064289,28.2048 C30.2072832,28.3776598 30.187952,28.5500301 30.1488,28.7184 C30.1130519,28.8618833 30.0564494,28.9993466 29.9808,29.1264 L27.5376,33.12 L25.6512,33.12 L28.656,28.224 L25.6512,23.208 L27.5184,23.208 Z" id="Path" fill="#FFFFFF" fill-rule="nonzero"></path>
        <path d="M23.0016,16.8 L24.3552,14.5967931 L13.6368,14.5967931 C12.6816657,14.5941396 11.9044879,15.3648766 11.8992,16.32 L11.8992,33.12 L14.1024,33.12 L14.1024,25.392 L21.5856,25.392 L22.9344,23.1936 L14.1024,23.1936 L14.1024,16.7712 L23.0016,16.8 Z" id="Path" fill="#FFFFFF" fill-rule="nonzero"></path>
    </g>
</svg>