<svg id="Layer_1" data-name="Layer 1" xmlns="http://www.w3.org/2000/svg" viewBox="0 0 100 100"><defs><style>.cls-1{fill:#00399c;}.cls-2,.cls-3{fill:#fff;}.cls-2{fill-rule:evenodd;}</style></defs><rect class="cls-1" width="100" height="100"/><polygon class="cls-2" points="78.46 50.99 78.46 57.53 85 57.53 85 59.98 78.46 59.98 78.46 66.52 76.01 66.52 76.01 59.98 69.48 59.98 69.48 57.53 76.01 57.53 76.01 50.99 78.46 50.99"/><path class="cls-3" d="M31.18,66.84,18,30.57h4.87L34.8,63.82,46.68,30.57H51.5L38.37,66.83A3.26,3.26,0,0,1,35.3,69h-1A3.26,3.26,0,0,1,31.18,66.84Z"/><path class="cls-3" d="M51.91,69H48.23l6.13-10.21L48.23,48.54h3.68L57,56.6a4.08,4.08,0,0,1,0,4.31Z"/><path class="cls-3" d="M65.8,69h3.68L63.35,58.76l6.13-10.22H65.8L60.73,56.6a4.08,4.08,0,0,0,0,4.31Z"/></svg>