<svg id="Layer_1" data-name="Layer 1" xmlns="http://www.w3.org/2000/svg" viewBox="0 0 100 100"><defs><style>.cls-1{fill:#00399c;}.cls-2{fill:#fff;}</style></defs><title>Vx UI</title><rect class="cls-1" width="100" height="100"/><path class="cls-2" d="M34.06,66.85,20.72,30.34h4.94L37.74,63.82l12.1-33.45h4.89L41.36,66.86A3.32,3.32,0,0,1,38.24,69H37.17A3.32,3.32,0,0,1,34.06,66.85Z"/><path class="cls-2" d="M79.13,48.39,72.86,58.84l6.27,10.22H75.18l-5.08-8.3a3.5,3.5,0,0,1-.47-1.92,4.28,4.28,0,0,1,.12-1,3,3,0,0,1,.33-.84l5.15-8.58Z"/><path class="cls-2" d="M61.41,48.35l5.15,8.58a3,3,0,0,1,.33.84,4.28,4.28,0,0,1,.12,1,4.55,4.55,0,0,1-.12,1.07,3,3,0,0,1-.35.85L61.45,69H57.52L63.79,58.8,57.52,48.35Z"/></svg>